<svg width="140" height="106" viewBox="0 0 140 106" fill="none"
  xmlns="http://www.w3.org/2000/svg">
  <g filter="url(#filter0_d)">
    <mask id="path-1-inside-1" fill="white">
      <path d="M63.576 0H17.508C13.9255 0 10.4896 1.41342 7.9564 3.92932C5.42316 6.44522 4 9.8575 4 13.4155L4 84.5845C4 88.1425 5.42316 91.5548 7.9564 94.0707C10.4896 96.5866 13.9255 98 17.508 98H122.492C129.95 98 136 91.9914 136 84.5845V13.4155C136 6.00857 129.95 0 122.492 0H76.2755H63.576ZM25.6315 10.1654H114.38C120.435 10.1654 125.347 15.0433 125.347 21.0574V76.3199C125.347 79.2087 124.191 81.9791 122.134 84.0217C120.078 86.0643 117.288 87.2119 114.38 87.2119H25.6315C22.7229 87.2119 19.9334 86.0643 17.8767 84.0217C15.8199 81.9791 14.6645 79.2087 14.6645 76.3199V21.0574C14.6645 15.0433 19.576 10.1654 25.6315 10.1654ZM43.5285 22.7944C36.855 22.7944 30.4548 25.4273 25.7359 30.1139C21.017 34.8004 18.366 41.1568 18.366 47.7846C18.366 54.4124 21.017 60.7688 25.7359 65.4554C30.4548 70.142 36.855 72.7749 43.5285 72.7749C50.202 72.7749 56.6022 70.142 61.3211 65.4554C66.04 60.7688 68.691 54.4124 68.691 47.7846C68.691 41.1568 66.04 34.8004 61.3211 30.1139C56.6022 25.4273 50.202 22.7944 43.5285 22.7944ZM97.115 22.7944C90.4415 22.7944 84.0413 25.4273 79.3224 30.1139C74.6035 34.8004 71.9525 41.1568 71.9525 47.7846C71.9525 54.4124 74.6035 60.7688 79.3224 65.4554C84.0413 70.142 90.4415 72.7749 97.115 72.7749C103.789 72.7749 110.189 70.142 114.908 65.4554C119.626 60.7688 122.277 54.4124 122.277 47.7846C122.277 41.1568 119.626 34.8004 114.908 30.1139C110.189 25.4273 103.789 22.7944 97.115 22.7944ZM43.5285 28.6391C46.0878 28.5962 48.6301 29.0597 51.0072 30.0027C53.3843 30.9458 55.5485 32.3494 57.3737 34.1317C59.1989 35.914 60.6485 38.0395 61.638 40.384C62.6275 42.7285 63.1372 45.2452 63.1372 47.7874C63.1372 50.3295 62.6275 52.8462 61.638 55.1908C60.6485 57.5353 59.1989 59.6607 57.3737 61.443C55.5485 63.2254 53.3843 64.629 51.0072 65.572C48.6301 66.515 46.0878 66.9786 43.5285 66.9356C38.4715 66.8508 33.6504 64.7961 30.1044 61.2143C26.5583 57.6326 24.5712 52.8105 24.5712 47.7874C24.5712 42.7642 26.5583 37.9422 30.1044 34.3604C33.6504 30.7786 38.4715 28.7239 43.5285 28.6391ZM97.115 28.6391C99.6743 28.5962 102.217 29.0597 104.594 30.0027C106.971 30.9458 109.135 32.3494 110.96 34.1317C112.785 35.914 114.235 38.0395 115.225 40.384C116.214 42.7285 116.724 45.2452 116.724 47.7874C116.724 50.3295 116.214 52.8462 115.225 55.1908C114.235 57.5353 112.785 59.6607 110.96 61.443C109.135 63.2254 106.971 64.629 104.594 65.572C102.217 66.515 99.6743 66.9786 97.115 66.9356C92.058 66.8508 87.2369 64.7961 83.6909 61.2143C80.1448 57.6326 78.1577 52.8105 78.1577 47.7874C78.1577 42.7642 80.1448 37.9422 83.6909 34.3604C87.2369 30.7786 92.058 28.7239 97.115 28.6391ZM43.5285 37.723C42.1974 37.723 40.8792 37.9834 39.6494 38.4893C38.4196 38.9952 37.3022 39.7368 36.3609 40.6716C35.4196 41.6064 34.673 42.7162 34.1636 43.9376C33.6542 45.159 33.392 46.4681 33.392 47.7901C33.392 49.1121 33.6542 50.4212 34.1636 51.6426C34.673 52.864 35.4196 53.9738 36.3609 54.9086C37.3022 55.8434 38.4196 56.585 39.6494 57.0909C40.8792 57.5968 42.1974 57.8572 43.5285 57.8572C46.2169 57.8572 48.7951 56.7965 50.6961 54.9086C52.5971 53.0206 53.665 50.46 53.665 47.7901C53.665 45.1201 52.5971 42.5595 50.6961 40.6716C48.7951 38.7836 46.2169 37.723 43.5285 37.723ZM97.115 37.723C95.7839 37.723 94.4657 37.9834 93.2359 38.4893C92.0061 38.9952 90.8887 39.7368 89.9474 40.6716C89.0062 41.6064 88.2595 42.7162 87.7501 43.9376C87.2407 45.159 86.9785 46.4681 86.9785 47.7901C86.9785 49.1121 87.2407 50.4212 87.7501 51.6426C88.2595 52.864 89.0062 53.9738 89.9474 54.9086C90.8887 55.8434 92.0061 56.585 93.2359 57.0909C94.4657 57.5968 95.7839 57.8572 97.115 57.8572C99.8034 57.8572 102.382 56.7965 104.283 54.9086C106.184 53.0206 107.252 50.46 107.252 47.7901C107.252 45.1201 106.184 42.5595 104.283 40.6716C102.382 38.7836 99.8034 37.723 97.115 37.723ZM59.0165 73.2282V85.0215H62.8995V73.2282H59.0165ZM64.94 73.2282V85.0215H68.8175V73.2282H64.94ZM70.858 73.2282V85.0215H74.741V73.2282H70.858ZM76.7815 73.2282V85.0215H80.6645V73.2282H76.7815ZM82.705 73.3921V84.8631C84.0025 84.5552 85.1578 83.8225 85.9849 82.783C86.812 81.7436 87.2627 80.4579 87.2645 79.133C87.2645 76.3472 85.3175 74.0094 82.705 73.3921ZM56.976 73.5451C55.8041 73.9425 54.7866 74.6937 54.0658 75.6936C53.3449 76.6936 52.9567 77.8923 52.9555 79.1221V79.1276C52.9555 81.7167 54.6385 83.9126 56.976 84.7046V73.5451Z"/>
    </mask>
    <path d="M63.576 0H17.508C13.9255 0 10.4896 1.41342 7.9564 3.92932C5.42316 6.44522 4 9.8575 4 13.4155L4 84.5845C4 88.1425 5.42316 91.5548 7.9564 94.0707C10.4896 96.5866 13.9255 98 17.508 98H122.492C129.95 98 136 91.9914 136 84.5845V13.4155C136 6.00857 129.95 0 122.492 0H76.2755H63.576ZM25.6315 10.1654H114.38C120.435 10.1654 125.347 15.0433 125.347 21.0574V76.3199C125.347 79.2087 124.191 81.9791 122.134 84.0217C120.078 86.0643 117.288 87.2119 114.38 87.2119H25.6315C22.7229 87.2119 19.9334 86.0643 17.8767 84.0217C15.8199 81.9791 14.6645 79.2087 14.6645 76.3199V21.0574C14.6645 15.0433 19.576 10.1654 25.6315 10.1654ZM43.5285 22.7944C36.855 22.7944 30.4548 25.4273 25.7359 30.1139C21.017 34.8004 18.366 41.1568 18.366 47.7846C18.366 54.4124 21.017 60.7688 25.7359 65.4554C30.4548 70.142 36.855 72.7749 43.5285 72.7749C50.202 72.7749 56.6022 70.142 61.3211 65.4554C66.04 60.7688 68.691 54.4124 68.691 47.7846C68.691 41.1568 66.04 34.8004 61.3211 30.1139C56.6022 25.4273 50.202 22.7944 43.5285 22.7944ZM97.115 22.7944C90.4415 22.7944 84.0413 25.4273 79.3224 30.1139C74.6035 34.8004 71.9525 41.1568 71.9525 47.7846C71.9525 54.4124 74.6035 60.7688 79.3224 65.4554C84.0413 70.142 90.4415 72.7749 97.115 72.7749C103.789 72.7749 110.189 70.142 114.908 65.4554C119.626 60.7688 122.277 54.4124 122.277 47.7846C122.277 41.1568 119.626 34.8004 114.908 30.1139C110.189 25.4273 103.789 22.7944 97.115 22.7944ZM43.5285 28.6391C46.0878 28.5962 48.6301 29.0597 51.0072 30.0027C53.3843 30.9458 55.5485 32.3494 57.3737 34.1317C59.1989 35.914 60.6485 38.0395 61.638 40.384C62.6275 42.7285 63.1372 45.2452 63.1372 47.7874C63.1372 50.3295 62.6275 52.8462 61.638 55.1908C60.6485 57.5353 59.1989 59.6607 57.3737 61.443C55.5485 63.2254 53.3843 64.629 51.0072 65.572C48.6301 66.515 46.0878 66.9786 43.5285 66.9356C38.4715 66.8508 33.6504 64.7961 30.1044 61.2143C26.5583 57.6326 24.5712 52.8105 24.5712 47.7874C24.5712 42.7642 26.5583 37.9422 30.1044 34.3604C33.6504 30.7786 38.4715 28.7239 43.5285 28.6391ZM97.115 28.6391C99.6743 28.5962 102.217 29.0597 104.594 30.0027C106.971 30.9458 109.135 32.3494 110.96 34.1317C112.785 35.914 114.235 38.0395 115.225 40.384C116.214 42.7285 116.724 45.2452 116.724 47.7874C116.724 50.3295 116.214 52.8462 115.225 55.1908C114.235 57.5353 112.785 59.6607 110.96 61.443C109.135 63.2254 106.971 64.629 104.594 65.572C102.217 66.515 99.6743 66.9786 97.115 66.9356C92.058 66.8508 87.2369 64.7961 83.6909 61.2143C80.1448 57.6326 78.1577 52.8105 78.1577 47.7874C78.1577 42.7642 80.1448 37.9422 83.6909 34.3604C87.2369 30.7786 92.058 28.7239 97.115 28.6391ZM43.5285 37.723C42.1974 37.723 40.8792 37.9834 39.6494 38.4893C38.4196 38.9952 37.3022 39.7368 36.3609 40.6716C35.4196 41.6064 34.673 42.7162 34.1636 43.9376C33.6542 45.159 33.392 46.4681 33.392 47.7901C33.392 49.1121 33.6542 50.4212 34.1636 51.6426C34.673 52.864 35.4196 53.9738 36.3609 54.9086C37.3022 55.8434 38.4196 56.585 39.6494 57.0909C40.8792 57.5968 42.1974 57.8572 43.5285 57.8572C46.2169 57.8572 48.7951 56.7965 50.6961 54.9086C52.5971 53.0206 53.665 50.46 53.665 47.7901C53.665 45.1201 52.5971 42.5595 50.6961 40.6716C48.7951 38.7836 46.2169 37.723 43.5285 37.723ZM97.115 37.723C95.7839 37.723 94.4657 37.9834 93.2359 38.4893C92.0061 38.9952 90.8887 39.7368 89.9474 40.6716C89.0062 41.6064 88.2595 42.7162 87.7501 43.9376C87.2407 45.159 86.9785 46.4681 86.9785 47.7901C86.9785 49.1121 87.2407 50.4212 87.7501 51.6426C88.2595 52.864 89.0062 53.9738 89.9474 54.9086C90.8887 55.8434 92.0061 56.585 93.2359 57.0909C94.4657 57.5968 95.7839 57.8572 97.115 57.8572C99.8034 57.8572 102.382 56.7965 104.283 54.9086C106.184 53.0206 107.252 50.46 107.252 47.7901C107.252 45.1201 106.184 42.5595 104.283 40.6716C102.382 38.7836 99.8034 37.723 97.115 37.723ZM59.0165 73.2282V85.0215H62.8995V73.2282H59.0165ZM64.94 73.2282V85.0215H68.8175V73.2282H64.94ZM70.858 73.2282V85.0215H74.741V73.2282H70.858ZM76.7815 73.2282V85.0215H80.6645V73.2282H76.7815ZM82.705 73.3921V84.8631C84.0025 84.5552 85.1578 83.8225 85.9849 82.783C86.812 81.7436 87.2627 80.4579 87.2645 79.133C87.2645 76.3472 85.3175 74.0094 82.705 73.3921ZM56.976 73.5451C55.8041 73.9425 54.7866 74.6937 54.0658 75.6936C53.3449 76.6936 52.9567 77.8923 52.9555 79.1221V79.1276C52.9555 81.7167 54.6385 83.9126 56.976 84.7046V73.5451Z" fill="#D97706"/>
    <path d="M63.576 0H17.508C13.9255 0 10.4896 1.41342 7.9564 3.92932C5.42316 6.44522 4 9.8575 4 13.4155L4 84.5845C4 88.1425 5.42316 91.5548 7.9564 94.0707C10.4896 96.5866 13.9255 98 17.508 98H122.492C129.95 98 136 91.9914 136 84.5845V13.4155C136 6.00857 129.95 0 122.492 0H76.2755H63.576ZM25.6315 10.1654H114.38C120.435 10.1654 125.347 15.0433 125.347 21.0574V76.3199C125.347 79.2087 124.191 81.9791 122.134 84.0217C120.078 86.0643 117.288 87.2119 114.38 87.2119H25.6315C22.7229 87.2119 19.9334 86.0643 17.8767 84.0217C15.8199 81.9791 14.6645 79.2087 14.6645 76.3199V21.0574C14.6645 15.0433 19.576 10.1654 25.6315 10.1654ZM43.5285 22.7944C36.855 22.7944 30.4548 25.4273 25.7359 30.1139C21.017 34.8004 18.366 41.1568 18.366 47.7846C18.366 54.4124 21.017 60.7688 25.7359 65.4554C30.4548 70.142 36.855 72.7749 43.5285 72.7749C50.202 72.7749 56.6022 70.142 61.3211 65.4554C66.04 60.7688 68.691 54.4124 68.691 47.7846C68.691 41.1568 66.04 34.8004 61.3211 30.1139C56.6022 25.4273 50.202 22.7944 43.5285 22.7944ZM97.115 22.7944C90.4415 22.7944 84.0413 25.4273 79.3224 30.1139C74.6035 34.8004 71.9525 41.1568 71.9525 47.7846C71.9525 54.4124 74.6035 60.7688 79.3224 65.4554C84.0413 70.142 90.4415 72.7749 97.115 72.7749C103.789 72.7749 110.189 70.142 114.908 65.4554C119.626 60.7688 122.277 54.4124 122.277 47.7846C122.277 41.1568 119.626 34.8004 114.908 30.1139C110.189 25.4273 103.789 22.7944 97.115 22.7944ZM43.5285 28.6391C46.0878 28.5962 48.6301 29.0597 51.0072 30.0027C53.3843 30.9458 55.5485 32.3494 57.3737 34.1317C59.1989 35.914 60.6485 38.0395 61.638 40.384C62.6275 42.7285 63.1372 45.2452 63.1372 47.7874C63.1372 50.3295 62.6275 52.8462 61.638 55.1908C60.6485 57.5353 59.1989 59.6607 57.3737 61.443C55.5485 63.2254 53.3843 64.629 51.0072 65.572C48.6301 66.515 46.0878 66.9786 43.5285 66.9356C38.4715 66.8508 33.6504 64.7961 30.1044 61.2143C26.5583 57.6326 24.5712 52.8105 24.5712 47.7874C24.5712 42.7642 26.5583 37.9422 30.1044 34.3604C33.6504 30.7786 38.4715 28.7239 43.5285 28.6391ZM97.115 28.6391C99.6743 28.5962 102.217 29.0597 104.594 30.0027C106.971 30.9458 109.135 32.3494 110.96 34.1317C112.785 35.914 114.235 38.0395 115.225 40.384C116.214 42.7285 116.724 45.2452 116.724 47.7874C116.724 50.3295 116.214 52.8462 115.225 55.1908C114.235 57.5353 112.785 59.6607 110.96 61.443C109.135 63.2254 106.971 64.629 104.594 65.572C102.217 66.515 99.6743 66.9786 97.115 66.9356C92.058 66.8508 87.2369 64.7961 83.6909 61.2143C80.1448 57.6326 78.1577 52.8105 78.1577 47.7874C78.1577 42.7642 80.1448 37.9422 83.6909 34.3604C87.2369 30.7786 92.058 28.7239 97.115 28.6391ZM43.5285 37.723C42.1974 37.723 40.8792 37.9834 39.6494 38.4893C38.4196 38.9952 37.3022 39.7368 36.3609 40.6716C35.4196 41.6064 34.673 42.7162 34.1636 43.9376C33.6542 45.159 33.392 46.4681 33.392 47.7901C33.392 49.1121 33.6542 50.4212 34.1636 51.6426C34.673 52.864 35.4196 53.9738 36.3609 54.9086C37.3022 55.8434 38.4196 56.585 39.6494 57.0909C40.8792 57.5968 42.1974 57.8572 43.5285 57.8572C46.2169 57.8572 48.7951 56.7965 50.6961 54.9086C52.5971 53.0206 53.665 50.46 53.665 47.7901C53.665 45.1201 52.5971 42.5595 50.6961 40.6716C48.7951 38.7836 46.2169 37.723 43.5285 37.723ZM97.115 37.723C95.7839 37.723 94.4657 37.9834 93.2359 38.4893C92.0061 38.9952 90.8887 39.7368 89.9474 40.6716C89.0062 41.6064 88.2595 42.7162 87.7501 43.9376C87.2407 45.159 86.9785 46.4681 86.9785 47.7901C86.9785 49.1121 87.2407 50.4212 87.7501 51.6426C88.2595 52.864 89.0062 53.9738 89.9474 54.9086C90.8887 55.8434 92.0061 56.585 93.2359 57.0909C94.4657 57.5968 95.7839 57.8572 97.115 57.8572C99.8034 57.8572 102.382 56.7965 104.283 54.9086C106.184 53.0206 107.252 50.46 107.252 47.7901C107.252 45.1201 106.184 42.5595 104.283 40.6716C102.382 38.7836 99.8034 37.723 97.115 37.723ZM59.0165 73.2282V85.0215H62.8995V73.2282H59.0165ZM64.94 73.2282V85.0215H68.8175V73.2282H64.94ZM70.858 73.2282V85.0215H74.741V73.2282H70.858ZM76.7815 73.2282V85.0215H80.6645V73.2282H76.7815ZM82.705 73.3921V84.8631C84.0025 84.5552 85.1578 83.8225 85.9849 82.783C86.812 81.7436 87.2627 80.4579 87.2645 79.133C87.2645 76.3472 85.3175 74.0094 82.705 73.3921ZM56.976 73.5451C55.8041 73.9425 54.7866 74.6937 54.0658 75.6936C53.3449 76.6936 52.9567 77.8923 52.9555 79.1221V79.1276C52.9555 81.7167 54.6385 83.9126 56.976 84.7046V73.5451Z" stroke="#FBBF24" stroke-width="6" mask="url(#path-1-inside-1)"/>
  </g>
  <defs>
    <filter id="filter0_d" x="0" y="0" width="140" height="106" filterUnits="userSpaceOnUse" color-interpolation-filters="sRGB">
      <feFlood flood-opacity="0" result="BackgroundImageFix"/>
      <feColorMatrix in="SourceAlpha" type="matrix" values="0 0 0 0 0 0 0 0 0 0 0 0 0 0 0 0 0 0 127 0"/>
      <feOffset dy="4"/>
      <feGaussianBlur stdDeviation="2"/>
      <feColorMatrix type="matrix" values="0 0 0 0 0.545052 0 0 0 0 0.0299479 0 0 0 0 0.0299481 0 0 0 0.25 0"/>
      <feBlend mode="normal" in2="BackgroundImageFix" result="effect1_dropShadow"/>
      <feBlend mode="normal" in="SourceGraphic" in2="effect1_dropShadow" result="shape"/>
    </filter>
  </defs>
</svg>
