<svg width="136" height="106" viewBox="0 0 136 106" fill="none"
  xmlns="http://www.w3.org/2000/svg">
  <g filter="url(#filter0_d)">
    <path d="M11.588 25V4.936H4.178V0.224H24.622V4.936H17.212V25H11.588ZM5.204 61V36.224H11.056L13.488 45.002L14.324 48.422H14.476L15.312 45.002L17.744 36.224H23.596V61H18.884V53.324C18.884 52.64 18.9093 51.7787 18.96 50.74C19.0107 49.7013 19.074 48.6373 19.15 47.548C19.226 46.4587 19.302 45.4073 19.378 44.394C19.4793 43.3553 19.5553 42.5067 19.606 41.848H19.492L17.592 48.46L15.692 54.426H12.956L11.018 48.46L9.232 41.848H9.118C9.194 42.5067 9.27 43.3553 9.346 44.394C9.422 45.4073 9.498 46.4587 9.574 47.548C9.65 48.6373 9.71333 49.7013 9.764 50.74C9.81467 51.7787 9.84 52.64 9.84 53.324V61H5.204ZM5.204 97V72.224H11.056L13.488 81.002L14.324 84.422H14.476L15.312 81.002L17.744 72.224H23.596V97H18.884V89.324C18.884 88.64 18.9093 87.7787 18.96 86.74C19.0107 85.7013 19.074 84.6373 19.15 83.548C19.226 82.4587 19.302 81.4073 19.378 80.394C19.4793 79.3553 19.5553 78.5067 19.606 77.848H19.492L17.592 84.46L15.692 90.426H12.956L11.018 84.46L9.232 77.848H9.118C9.194 78.5067 9.27 79.3553 9.346 80.394C9.422 81.4073 9.498 82.4587 9.574 83.548C9.65 84.6373 9.71333 85.7013 9.764 86.74C9.81467 87.7787 9.84 88.64 9.84 89.324V97H5.204Z" fill="#F59E0B"/>
    <path d="M27.9452 25V5.38H31.4252V13.27H38.1452V5.38H41.6252V25H38.1452V16.3H31.4252V25H27.9452ZM46.8634 25V5.38H59.4334V8.32H50.3434V13.33H58.0534V16.27H50.3434V22.06H59.7334V25H46.8634ZM34.8152 61.36C32.6752 61.36 30.9952 60.72 29.7752 59.44C28.5552 58.16 27.9452 56.18 27.9452 53.5V41.38H31.4252V53.77C31.4252 55.39 31.7252 56.56 32.3252 57.28C32.9252 57.98 33.7552 58.33 34.8152 58.33C35.8952 58.33 36.7452 57.98 37.3652 57.28C37.9852 56.56 38.2952 55.39 38.2952 53.77V41.38H41.6252V53.5C41.6252 56.2 41.0352 58.19 39.8552 59.47C38.6752 60.73 36.9952 61.36 34.8152 61.36ZM52.8334 61.36C51.4534 61.36 50.1334 61.11 48.8734 60.61C47.6134 60.11 46.4934 59.4 45.5134 58.48L47.5534 56.11C48.2934 56.77 49.1334 57.31 50.0734 57.73C51.0134 58.13 52.0034 58.33 53.0434 58.33C54.1834 58.33 55.0534 58.11 55.6534 57.67C56.2534 57.23 56.5534 56.66 56.5534 55.96C56.5534 55.52 56.4734 55.16 56.3134 54.88C56.1534 54.58 55.9234 54.32 55.6234 54.1C55.3434 53.88 54.9934 53.68 54.5734 53.5C54.1734 53.32 53.7334 53.13 53.2534 52.93L50.5834 51.76C50.0634 51.56 49.5534 51.31 49.0534 51.01C48.5534 50.71 48.1034 50.35 47.7034 49.93C47.3034 49.51 46.9834 49.02 46.7434 48.46C46.5034 47.9 46.3834 47.26 46.3834 46.54C46.3834 45.76 46.5534 45.04 46.8934 44.38C47.2334 43.7 47.7034 43.11 48.3034 42.61C48.9034 42.11 49.6134 41.72 50.4334 41.44C51.2734 41.16 52.1934 41.02 53.1934 41.02C54.3934 41.02 55.5334 41.25 56.6134 41.71C57.7134 42.15 58.6734 42.75 59.4934 43.51L57.6934 45.73C57.0334 45.21 56.3334 44.8 55.5934 44.5C54.8734 44.2 54.0134 44.05 53.0134 44.05C52.0734 44.05 51.3134 44.25 50.7334 44.65C50.1734 45.05 49.8934 45.62 49.8934 46.36C49.8934 46.74 49.9834 47.07 50.1634 47.35C50.3434 47.61 50.5834 47.85 50.8834 48.07C51.2034 48.27 51.5634 48.45 51.9634 48.61C52.3834 48.77 52.8134 48.94 53.2534 49.12L55.8334 50.23C56.4534 50.47 57.0234 50.75 57.5434 51.07C58.0634 51.39 58.5134 51.76 58.8934 52.18C59.2734 52.6 59.5634 53.09 59.7634 53.65C59.9834 54.19 60.0934 54.82 60.0934 55.54C60.0934 56.34 59.9234 57.09 59.5834 57.79C59.2634 58.49 58.7934 59.11 58.1734 59.65C57.5534 60.17 56.7934 60.59 55.8934 60.91C54.9934 61.21 53.9734 61.36 52.8334 61.36ZM64.2817 61V58.06H69.0217V44.32H64.2817V41.38H77.2417V44.32H72.5017V58.06H77.2417V61H64.2817ZM90.37 61.36C89.15 61.36 88 61.14 86.92 60.7C85.86 60.26 84.93 59.61 84.13 58.75C83.33 57.89 82.7 56.83 82.24 55.57C81.78 54.31 81.55 52.87 81.55 51.25C81.55 49.65 81.78 48.22 82.24 46.96C82.7 45.68 83.33 44.6 84.13 43.72C84.95 42.84 85.91 42.17 87.01 41.71C88.11 41.25 89.31 41.02 90.61 41.02C91.83 41.02 92.91 41.27 93.85 41.77C94.81 42.27 95.6 42.84 96.22 43.48L94.3 45.64C93.8 45.16 93.25 44.78 92.65 44.5C92.05 44.2 91.37 44.05 90.61 44.05C89.79 44.05 89.04 44.22 88.36 44.56C87.7 44.88 87.13 45.35 86.65 45.97C86.17 46.57 85.79 47.31 85.51 48.19C85.25 49.07 85.12 50.06 85.12 51.16C85.12 52.28 85.25 53.29 85.51 54.19C85.79 55.07 86.17 55.82 86.65 56.44C87.13 57.04 87.71 57.51 88.39 57.85C89.09 58.17 89.86 58.33 90.7 58.33C91.5 58.33 92.22 58.16 92.86 57.82C93.52 57.48 94.13 57 94.69 56.38L96.61 58.51C95.83 59.43 94.92 60.14 93.88 60.64C92.86 61.12 91.69 61.36 90.37 61.36ZM32.9252 86.56L32.2352 88.96H37.2152L36.5252 86.56C36.2452 85.52 35.9552 84.46 35.6552 83.38C35.3552 82.28 35.0652 81.18 34.7852 80.08H34.6652C34.3852 81.18 34.0952 82.28 33.7952 83.38C33.5152 84.46 33.2252 85.52 32.9252 86.56ZM26.3852 97L32.7452 77.38H36.8252L43.1852 97H39.4952L37.9952 91.69H31.4552L29.9252 97H26.3852ZM54.3934 97.36C53.1734 97.36 52.0234 97.14 50.9434 96.7C49.8834 96.26 48.9534 95.61 48.1534 94.75C47.3534 93.89 46.7234 92.83 46.2634 91.57C45.8034 90.31 45.5734 88.87 45.5734 87.25C45.5734 85.65 45.8034 84.22 46.2634 82.96C46.7234 81.68 47.3534 80.6 48.1534 79.72C48.9734 78.84 49.9334 78.17 51.0334 77.71C52.1334 77.25 53.3334 77.02 54.6334 77.02C55.8534 77.02 56.9334 77.27 57.8734 77.77C58.8334 78.27 59.6234 78.84 60.2434 79.48L58.3234 81.64C57.8234 81.16 57.2734 80.78 56.6734 80.5C56.0734 80.2 55.3934 80.05 54.6334 80.05C53.8134 80.05 53.0634 80.22 52.3834 80.56C51.7234 80.88 51.1534 81.35 50.6734 81.97C50.1934 82.57 49.8134 83.31 49.5334 84.19C49.2734 85.07 49.1434 86.06 49.1434 87.16C49.1434 88.28 49.2734 89.29 49.5334 90.19C49.8134 91.07 50.1934 91.82 50.6734 92.44C51.1534 93.04 51.7334 93.51 52.4134 93.85C53.1134 94.17 53.8834 94.33 54.7234 94.33C55.5234 94.33 56.2434 94.16 56.8834 93.82C57.5434 93.48 58.1534 93 58.7134 92.38L60.6334 94.51C59.8534 95.43 58.9434 96.14 57.9034 96.64C56.8834 97.12 55.7134 97.36 54.3934 97.36ZM63.9217 97V77.38H67.4017V85.27H74.1217V77.38H77.6017V97H74.1217V88.3H67.4017V97H63.9217ZM82.27 97V94.06H87.01V80.32H82.27V77.38H95.23V80.32H90.49V94.06H95.23V97H82.27ZM99.9583 97V77.38H103.618L108.808 88.39L110.578 92.59H110.668C110.588 91.57 110.488 90.48 110.368 89.32C110.248 88.14 110.188 87 110.188 85.9V77.38H113.518V97H109.858L104.668 85.96L102.898 81.79H102.808C102.888 82.85 102.988 83.95 103.108 85.09C103.228 86.21 103.288 87.32 103.288 88.42V97H99.9583ZM118.817 97V77.38H131.387V80.32H122.297V85.33H130.007V88.27H122.297V94.06H131.687V97H118.817Z" fill="#D97706"/>
  </g>
  <defs>
    <filter id="filter0_d" x="0.177979" y="0.223999" width="135.509" height="105.136" filterUnits="userSpaceOnUse" color-interpolation-filters="sRGB">
      <feFlood flood-opacity="0" result="BackgroundImageFix"/>
      <feColorMatrix in="SourceAlpha" type="matrix" values="0 0 0 0 0 0 0 0 0 0 0 0 0 0 0 0 0 0 127 0"/>
      <feOffset dy="4"/>
      <feGaussianBlur stdDeviation="2"/>
      <feColorMatrix type="matrix" values="0 0 0 0 0.545052 0 0 0 0 0.0299479 0 0 0 0 0.0299481 0 0 0 0.25 0"/>
      <feBlend mode="normal" in2="BackgroundImageFix" result="effect1_dropShadow"/>
      <feBlend mode="normal" in="SourceGraphic" in2="effect1_dropShadow" result="shape"/>
    </filter>
  </defs>
</svg>
